<svg xmlns="http://www.w3.org/2000/svg"
     width="1500"
     height="890"
     viewBox="-20 -20 1500 890">
<g id="o1:1" transform="translate(0, 0)"><rect x="0" y="0" width="1460" height="850" fill="#ffffff" stroke="none" stroke-width="0" rx="0" ry="0"/></g>
<g id="a1:1" transform="translate(40, 10.5875)"><text font-size="25" font-family="Noto Sans SC" font-weight="normal" fill="#0f172a" text-anchor="start" dominant-baseline="alphabetic" x="0"><tspan x="0" y="29.412"><tspan x="0" text-anchor="start">排课 ER：规则是模板，课次是实际记录</tspan></tspan></text></g>
<g id="c1:1" transform="translate(360, 165)"><path fill="none" stroke="#64748b" stroke-width="2" stroke-linecap="round" stroke-linejoin="round" d="M 0 0 L 175 0"/></g>
<g id="a1:2" transform="translate(382, 129.9995)"><text font-size="17" font-family="Noto Sans SC" font-weight="normal" fill="#475569" text-anchor="start" dominant-baseline="alphabetic" x="0"><tspan x="0" y="20.001"><tspan x="0" text-anchor="start">1 → 0..N</tspan></tspan></text></g>
<g id="c1:2" transform="translate(885, 195)"><path fill="none" stroke="#64748b" stroke-width="2" stroke-linecap="round" stroke-linejoin="round" d="M 205 0 L 0 0"/></g>
<g id="a1:3" transform="translate(893, 159.9995)"><text font-size="17" font-family="Noto Sans SC" font-weight="normal" fill="#475569" text-anchor="start" dominant-baseline="alphabetic" x="0"><tspan x="0" y="20.001"><tspan x="0" text-anchor="start">1 → 0..N 默认老师</tspan></tspan></text></g>
<g id="c1:3" transform="translate(240, 275)"><path fill="none" stroke="#64748b" stroke-width="2" stroke-linecap="round" stroke-linejoin="round" d="M 360 0 L 360 45 L 0 45 L 0 145"/></g>
<g id="a1:4" transform="translate(315, 289.9995)"><text font-size="17" font-family="Noto Sans SC" font-weight="normal" fill="#475569" text-anchor="start" dominant-baseline="alphabetic" x="0"><tspan x="0" y="20.001"><tspan x="0" text-anchor="start">1 → 0..N</tspan></tspan></text></g>
<g id="c1:4" transform="translate(800, 275)"><path fill="none" stroke="#64748b" stroke-width="2" stroke-linecap="round" stroke-linejoin="round" d="M 0 0 L 0 90"/></g>
<g id="a1:5" transform="translate(818, 302.9995)"><text font-size="17" font-family="Noto Sans SC" font-weight="normal" fill="#475569" text-anchor="start" dominant-baseline="alphabetic" x="0"><tspan x="0" y="20.001"><tspan x="0" text-anchor="start">1 → 0..N</tspan></tspan></text></g>
<g id="c1:5" transform="translate(430, 520)"><path fill="none" stroke="#64748b" stroke-width="2" stroke-linecap="round" stroke-linejoin="round" d="M 0 0 L 260 0"/></g>
<g id="a1:6" transform="translate(456, 479.9995)"><text font-size="17" font-family="Noto Sans SC" font-weight="normal" fill="#475569" text-anchor="start" dominant-baseline="alphabetic" x="0"><tspan x="0" y="20.001"><tspan x="0" text-anchor="start">0..1 → 0..N 来源</tspan></tspan></text></g>
<g id="c1:6" transform="translate(1250, 235)"><path fill="none" stroke="#64748b" stroke-width="2" stroke-linecap="round" stroke-linejoin="round" d="M 0 0 L 0 130"/></g>
<g id="a1:7" transform="translate(1100, 279.9995)"><text font-size="17" font-family="Noto Sans SC" font-weight="normal" fill="#475569" text-anchor="start" dominant-baseline="alphabetic" x="0"><tspan x="0" y="20.001"><tspan x="0" text-anchor="start">1 → 0..N；两条老师外键</tspan></tspan></text></g>
<g id="o1:2" transform="translate(40, 95)"><rect x="0" y="0" width="320" height="140" fill="#eaf2ff" stroke="#4678ab" stroke-width="2" rx="8" ry="8"/></g>
<g id="a1:8" transform="translate(56, 103.47)"><text font-size="20" font-family="Noto Sans SC" font-weight="bold" fill="#172b46" text-anchor="start" dominant-baseline="alphabetic" x="0"><tspan x="0" y="23.53"><tspan x="0" text-anchor="start">课程 Course</tspan></tspan></text></g>
<g id="c1:7" transform="translate(40, 143)"><path fill="none" stroke="#4678ab" stroke-width="1" stroke-linecap="round" stroke-linejoin="round" d="M 0 0 L 320 0"/></g>
<g id="a1:9" transform="translate(56, 150.9995)"><text font-size="17" font-family="Noto Sans SC" font-weight="normal" fill="#24364b" text-anchor="start" dominant-baseline="alphabetic" x="0"><tspan x="0" y="20.001"><tspan x="0" text-anchor="start">PK id</tspan></tspan></text></g>
<g id="a1:10" transform="translate(56, 177.9995)"><text font-size="17" font-family="Noto Sans SC" font-weight="normal" fill="#24364b" text-anchor="start" dominant-baseline="alphabetic" x="0"><tspan x="0" y="20.001"><tspan x="0" text-anchor="start">name：Year 5 数学</tspan></tspan></text></g>
<g id="o1:3" transform="translate(535, 95)"><rect x="0" y="0" width="350" height="180" fill="#eaf2ff" stroke="#4678ab" stroke-width="2" rx="8" ry="8"/></g>
<g id="a1:11" transform="translate(551, 103.47)"><text font-size="20" font-family="Noto Sans SC" font-weight="bold" fill="#172b46" text-anchor="start" dominant-baseline="alphabetic" x="0"><tspan x="0" y="23.53"><tspan x="0" text-anchor="start">班级 Class</tspan></tspan></text></g>
<g id="c1:8" transform="translate(535, 143)"><path fill="none" stroke="#4678ab" stroke-width="1" stroke-linecap="round" stroke-linejoin="round" d="M 0 0 L 350 0"/></g>
<g id="a1:12" transform="translate(551, 150.9995)"><text font-size="17" font-family="Noto Sans SC" font-weight="normal" fill="#24364b" text-anchor="start" dominant-baseline="alphabetic" x="0"><tspan x="0" y="20.001"><tspan x="0" text-anchor="start">PK id</tspan></tspan></text></g>
<g id="a1:13" transform="translate(551, 177.9995)"><text font-size="17" font-family="Noto Sans SC" font-weight="normal" fill="#24364b" text-anchor="start" dominant-baseline="alphabetic" x="0"><tspan x="0" y="20.001"><tspan x="0" text-anchor="start">FK course_id</tspan></tspan></text></g>
<g id="a1:14" transform="translate(551, 204.9995)"><text font-size="17" font-family="Noto Sans SC" font-weight="normal" fill="#24364b" text-anchor="start" dominant-baseline="alphabetic" x="0"><tspan x="0" y="20.001"><tspan x="0" text-anchor="start">FK default_teacher_id</tspan></tspan></text></g>
<g id="o1:4" transform="translate(1090, 95)"><rect x="0" y="0" width="330" height="140" fill="#eaf2ff" stroke="#4678ab" stroke-width="2" rx="8" ry="8"/></g>
<g id="a1:15" transform="translate(1106, 103.47)"><text font-size="20" font-family="Noto Sans SC" font-weight="bold" fill="#172b46" text-anchor="start" dominant-baseline="alphabetic" x="0"><tspan x="0" y="23.53"><tspan x="0" text-anchor="start">老师 Teacher</tspan></tspan></text></g>
<g id="c1:9" transform="translate(1090, 143)"><path fill="none" stroke="#4678ab" stroke-width="1" stroke-linecap="round" stroke-linejoin="round" d="M 0 0 L 330 0"/></g>
<g id="a1:16" transform="translate(1106, 150.9995)"><text font-size="17" font-family="Noto Sans SC" font-weight="normal" fill="#24364b" text-anchor="start" dominant-baseline="alphabetic" x="0"><tspan x="0" y="20.001"><tspan x="0" text-anchor="start">PK id</tspan></tspan></text></g>
<g id="a1:17" transform="translate(1106, 177.9995)"><text font-size="17" font-family="Noto Sans SC" font-weight="normal" fill="#24364b" text-anchor="start" dominant-baseline="alphabetic" x="0"><tspan x="0" y="20.001"><tspan x="0" text-anchor="start">name</tspan></tspan></text></g>
<g id="o1:5" transform="translate(40, 420)"><rect x="0" y="0" width="390" height="190" fill="#fff7e0" stroke="#b68b31" stroke-width="2" rx="8" ry="8"/></g>
<g id="a1:18" transform="translate(56, 428.47)"><text font-size="20" font-family="Noto Sans SC" font-weight="bold" fill="#172b46" text-anchor="start" dominant-baseline="alphabetic" x="0"><tspan x="0" y="23.53"><tspan x="0" text-anchor="start">周排课规则 ScheduleRule</tspan></tspan></text></g>
<g id="c1:10" transform="translate(40, 468)"><path fill="none" stroke="#b68b31" stroke-width="1" stroke-linecap="round" stroke-linejoin="round" d="M 0 0 L 390 0"/></g>
<g id="a1:19" transform="translate(56, 475.9995)"><text font-size="17" font-family="Noto Sans SC" font-weight="normal" fill="#24364b" text-anchor="start" dominant-baseline="alphabetic" x="0"><tspan x="0" y="20.001"><tspan x="0" text-anchor="start">PK id / FK class_id</tspan></tspan></text></g>
<g id="a1:20" transform="translate(56, 502.9995)"><text font-size="17" font-family="Noto Sans SC" font-weight="normal" fill="#24364b" text-anchor="start" dominant-baseline="alphabetic" x="0"><tspan x="0" y="20.001"><tspan x="0" text-anchor="start">weekday / local_start / local_end</tspan></tspan></text></g>
<g id="a1:21" transform="translate(56, 529.9995)"><text font-size="17" font-family="Noto Sans SC" font-weight="normal" fill="#24364b" text-anchor="start" dominant-baseline="alphabetic" x="0"><tspan x="0" y="20.001"><tspan x="0" text-anchor="start">effective_from / effective_to</tspan></tspan></text></g>
<g id="o1:6" transform="translate(690, 365)"><rect x="0" y="0" width="730" height="250" fill="#eaf2ff" stroke="#4678ab" stroke-width="2" rx="8" ry="8"/></g>
<g id="a1:22" transform="translate(706, 373.47)"><text font-size="20" font-family="Noto Sans SC" font-weight="bold" fill="#172b46" text-anchor="start" dominant-baseline="alphabetic" x="0"><tspan x="0" y="23.53"><tspan x="0" text-anchor="start">具体课次 ClassSession</tspan></tspan></text></g>
<g id="c1:11" transform="translate(690, 413)"><path fill="none" stroke="#4678ab" stroke-width="1" stroke-linecap="round" stroke-linejoin="round" d="M 0 0 L 730 0"/></g>
<g id="a1:23" transform="translate(706, 420.9995)"><text font-size="17" font-family="Noto Sans SC" font-weight="normal" fill="#24364b" text-anchor="start" dominant-baseline="alphabetic" x="0"><tspan x="0" y="20.001"><tspan x="0" text-anchor="start">PK id / FK class_id</tspan></tspan></text></g>
<g id="a1:24" transform="translate(706, 447.9995)"><text font-size="17" font-family="Noto Sans SC" font-weight="normal" fill="#24364b" text-anchor="start" dominant-baseline="alphabetic" x="0"><tspan x="0" y="20.001"><tspan x="0" text-anchor="start">FK schedule_rule_id（可空）</tspan></tspan></text></g>
<g id="a1:25" transform="translate(706, 474.9995)"><text font-size="17" font-family="Noto Sans SC" font-weight="normal" fill="#24364b" text-anchor="start" dominant-baseline="alphabetic" x="0"><tspan x="0" y="20.001"><tspan x="0" text-anchor="start">starts_at / ends_at</tspan></tspan></text></g>
<g id="a1:26" transform="translate(706, 501.9995)"><text font-size="17" font-family="Noto Sans SC" font-weight="normal" fill="#24364b" text-anchor="start" dominant-baseline="alphabetic" x="0"><tspan x="0" y="20.001"><tspan x="0" text-anchor="start">FK planned_teacher_id</tspan></tspan></text></g>
<g id="a1:27" transform="translate(706, 528.9995)"><text font-size="17" font-family="Noto Sans SC" font-weight="normal" fill="#24364b" text-anchor="start" dominant-baseline="alphabetic" x="0"><tspan x="0" y="20.001"><tspan x="0" text-anchor="start">FK assigned_teacher_id</tspan></tspan></text></g>
<g id="a1:28" transform="translate(706, 555.9995)"><text font-size="17" font-family="Noto Sans SC" font-weight="normal" fill="#24364b" text-anchor="start" dominant-baseline="alphabetic" x="0"><tspan x="0" y="20.001"><tspan x="0" text-anchor="start">status：scheduled / completed / cancelled</tspan></tspan></text></g>
<g id="a1:29" transform="translate(40, 735.9995)"><text font-size="17" font-family="Noto Sans SC" font-weight="normal" fill="#475569" text-anchor="start" dominant-baseline="alphabetic" x="0"><tspan x="0" y="20.001"><tspan x="0" text-anchor="start">蓝色：本期实体；黄色：后续模块。1 → 0..N 表示一个父记录可有零至多个子记录。</tspan></tspan></text></g>
<g id="a1:30" transform="translate(40, 764.9995)"><text font-size="17" font-family="Noto Sans SC" font-weight="normal" fill="#475569" text-anchor="start" dominant-baseline="alphabetic" x="0"><tspan x="0" y="20.001"><tspan x="0" text-anchor="start">代课只改 assigned_teacher_id；取消只改本次课次。历史课次不随班级默认老师改变。</tspan></tspan></text></g>
<g id="a1:31" transform="translate(40, 793.9995)"><text font-size="17" font-family="Noto Sans SC" font-weight="normal" fill="#475569" text-anchor="start" dominant-baseline="alphabetic" x="0"><tspan x="0" y="20.001"><tspan x="0" text-anchor="start">schedule_rule_id 可空：本期直接 seed 具体日期课次，不实现周期生成器。</tspan></tspan></text></g>
</svg>