<svg xmlns="http://www.w3.org/2000/svg"
     width="1500"
     height="890"
     viewBox="-20 -20 1500 890">
<g id="o1:14" transform="translate(0, 0)"><rect x="0" y="0" width="1460" height="850" fill="#ffffff" stroke="none" stroke-width="0" rx="0" ry="0"/></g>
<g id="a1:75" transform="translate(40, 10.5875)"><text font-size="25" font-family="Noto Sans SC" font-weight="normal" fill="#0f172a" text-anchor="start" dominant-baseline="alphabetic" x="0"><tspan x="0" y="29.412"><tspan x="0" text-anchor="start">试听 ER：沿用课次参与表，不新增 TrialBooking</tspan></tspan></text></g>
<g id="c1:23" transform="translate(370, 175)"><path fill="none" stroke="#64748b" stroke-width="2" stroke-linecap="round" stroke-linejoin="round" d="M 0 0 L 190 0"/></g>
<g id="a1:79" transform="translate(397, 136.9995)"><text font-size="17" font-family="Noto Sans SC" font-weight="normal" fill="#475569" text-anchor="start" dominant-baseline="alphabetic" x="0"><tspan x="0" y="20.001"><tspan x="0" text-anchor="start">1 → 0..1</tspan></tspan></text></g>
<g id="c1:28" transform="translate(750, 300)"><path fill="none" stroke="#64748b" stroke-width="2" stroke-linecap="round" stroke-linejoin="round" d="M 0 0 L 0 120"/></g>
<g id="a1:65" transform="translate(558, 335.9995)"><text font-size="17" font-family="Noto Sans SC" font-weight="normal" fill="#475569" text-anchor="start" dominant-baseline="alphabetic" x="0"><tspan x="0" y="20.001"><tspan x="0" text-anchor="start">0..1 → 0..N；试听必须归属流程</tspan></tspan></text></g>
<g id="c1:30" transform="translate(1030, 240)"><path fill="none" stroke="#64748b" stroke-width="2" stroke-linecap="round" stroke-linejoin="round" d="M 0 0 L 215 0 L 215 190"/></g>
<g id="a1:84" transform="translate(1095, 306.9995)"><text font-size="17" font-family="Noto Sans SC" font-weight="normal" fill="#475569" text-anchor="start" dominant-baseline="alphabetic" x="0"><tspan x="0" y="20.001"><tspan x="0" text-anchor="start">1 → 0..N</tspan></tspan></text></g>
<g id="c1:29" transform="translate(370, 515)"><path fill="none" stroke="#64748b" stroke-width="2" stroke-linecap="round" stroke-linejoin="round" d="M 0 0 L 140 0"/></g>
<g id="a1:72" transform="translate(380, 472.9995)"><text font-size="17" font-family="Noto Sans SC" font-weight="normal" fill="#475569" text-anchor="start" dominant-baseline="alphabetic" x="0"><tspan x="0" y="20.001"><tspan x="0" text-anchor="start">1 → 0..N</tspan></tspan></text></g>
<g id="c1:21" transform="translate(200, 255)"><path fill="none" stroke="#64748b" stroke-width="2" stroke-linecap="round" stroke-linejoin="round" d="M 0 0 L 0 90 L 260 90 L 260 340 L 310 340"/></g>
<g id="a1:95" transform="translate(251, 313.9995)"><text font-size="17" font-family="Noto Sans SC" font-weight="normal" fill="#475569" text-anchor="start" dominant-baseline="alphabetic" x="0"><tspan x="0" y="20.001"><tspan x="0" text-anchor="start">1 → 0..N</tspan></tspan></text></g>
<g id="o1:16" transform="translate(40, 105)"><rect x="0" y="0" width="330" height="150" fill="#eaf2ff" stroke="#4678ab" stroke-width="2" rx="8" ry="8"/></g>
<g id="a1:76" transform="translate(56, 113.47)"><text font-size="20" font-family="Noto Sans SC" font-weight="bold" fill="#172b46" text-anchor="start" dominant-baseline="alphabetic" x="0"><tspan x="0" y="23.53"><tspan x="0" text-anchor="start">学生 Student</tspan></tspan></text></g>
<g id="c1:25" transform="translate(40, 153)"><path fill="none" stroke="#4678ab" stroke-width="2" stroke-linecap="round" stroke-linejoin="round" d="M 0 0 L 330 0"/></g>
<g id="a1:90" transform="translate(56, 160.9995)"><text font-size="17" font-family="Noto Sans SC" font-weight="normal" fill="#24364b" text-anchor="start" dominant-baseline="alphabetic" x="0"><tspan x="0" y="20.001"><tspan x="0" text-anchor="start">PK id</tspan></tspan></text></g>
<g id="a1:80" transform="translate(56, 187.9995)"><text font-size="17" font-family="Noto Sans SC" font-weight="normal" fill="#24364b" text-anchor="start" dominant-baseline="alphabetic" x="0"><tspan x="0" y="20.001"><tspan x="0" text-anchor="start">FK owner_admin_id</tspan></tspan></text></g>
<g id="o1:13" transform="translate(560, 95)"><rect x="0" y="0" width="470" height="205" fill="#eaf2ff" stroke="#4678ab" stroke-width="2" rx="8" ry="8"/></g>
<g id="a1:66" transform="translate(576, 103.47)"><text font-size="20" font-family="Noto Sans SC" font-weight="bold" fill="#172b46" text-anchor="start" dominant-baseline="alphabetic" x="0"><tspan x="0" y="23.53"><tspan x="0" text-anchor="start">试听流程 TrialCase</tspan></tspan></text></g>
<g id="c1:22" transform="translate(560, 143)"><path fill="none" stroke="#4678ab" stroke-width="2" stroke-linecap="round" stroke-linejoin="round" d="M 0 0 L 470 0"/></g>
<g id="a1:77" transform="translate(576, 150.9995)"><text font-size="17" font-family="Noto Sans SC" font-weight="normal" fill="#24364b" text-anchor="start" dominant-baseline="alphabetic" x="0"><tspan x="0" y="20.001"><tspan x="0" text-anchor="start">PK id</tspan></tspan></text></g>
<g id="a1:67" transform="translate(576, 177.9995)"><text font-size="17" font-family="Noto Sans SC" font-weight="normal" fill="#24364b" text-anchor="start" dominant-baseline="alphabetic" x="0"><tspan x="0" y="20.001"><tspan x="0" text-anchor="start">FK student_id UNIQUE</tspan></tspan></text></g>
<g id="a1:85" transform="translate(576, 204.9995)"><text font-size="17" font-family="Noto Sans SC" font-weight="normal" fill="#24364b" text-anchor="start" dominant-baseline="alphabetic" x="0"><tspan x="0" y="20.001"><tspan x="0" text-anchor="start">status：试听流程阶段（六阶段见正文）</tspan></tspan></text></g>
<g id="a1:81" transform="translate(576, 231.9995)"><text font-size="17" font-family="Noto Sans SC" font-weight="normal" fill="#24364b" text-anchor="start" dominant-baseline="alphabetic" x="0"><tspan x="0" y="20.001"><tspan x="0" text-anchor="start">next_followup_at（可空）</tspan></tspan></text></g>
<g id="o1:17" transform="translate(1070, 430)"><rect x="0" y="0" width="350" height="205" fill="#eaf2ff" stroke="#4678ab" stroke-width="2" rx="8" ry="8"/></g>
<g id="a1:91" transform="translate(1086, 438.47)"><text font-size="20" font-family="Noto Sans SC" font-weight="bold" fill="#172b46" text-anchor="start" dominant-baseline="alphabetic" x="0"><tspan x="0" y="23.53"><tspan x="0" text-anchor="start">跟进记录 FollowUp</tspan></tspan></text></g>
<g id="c1:27" transform="translate(1070, 478)"><path fill="none" stroke="#4678ab" stroke-width="2" stroke-linecap="round" stroke-linejoin="round" d="M 0 0 L 350 0"/></g>
<g id="a1:82" transform="translate(1086, 485.9995)"><text font-size="17" font-family="Noto Sans SC" font-weight="normal" fill="#24364b" text-anchor="start" dominant-baseline="alphabetic" x="0"><tspan x="0" y="20.001"><tspan x="0" text-anchor="start">PK id / FK trial_case_id</tspan></tspan></text></g>
<g id="a1:89" transform="translate(1086, 512.9995)"><text font-size="17" font-family="Noto Sans SC" font-weight="normal" fill="#24364b" text-anchor="start" dominant-baseline="alphabetic" x="0"><tspan x="0" y="20.001"><tspan x="0" text-anchor="start">FK author_admin_id</tspan></tspan></text></g>
<g id="a1:92" transform="translate(1086, 539.9995)"><text font-size="17" font-family="Noto Sans SC" font-weight="normal" fill="#24364b" text-anchor="start" dominant-baseline="alphabetic" x="0"><tspan x="0" y="20.001"><tspan x="0" text-anchor="start">outcome / summary</tspan></tspan></text></g>
<g id="a1:83" transform="translate(1086, 566.9995)"><text font-size="17" font-family="Noto Sans SC" font-weight="normal" fill="#24364b" text-anchor="start" dominant-baseline="alphabetic" x="0"><tspan x="0" y="20.001"><tspan x="0" text-anchor="start">next_followup_at / created_at</tspan></tspan></text></g>
<g id="o1:15" transform="translate(40, 445)"><rect x="0" y="0" width="330" height="150" fill="#eaf2ff" stroke="#4678ab" stroke-width="2" rx="8" ry="8"/></g>
<g id="a1:73" transform="translate(56, 453.47)"><text font-size="20" font-family="Noto Sans SC" font-weight="bold" fill="#172b46" text-anchor="start" dominant-baseline="alphabetic" x="0"><tspan x="0" y="23.53"><tspan x="0" text-anchor="start">具体课次 ClassSession</tspan></tspan></text></g>
<g id="c1:26" transform="translate(40, 493)"><path fill="none" stroke="#4678ab" stroke-width="2" stroke-linecap="round" stroke-linejoin="round" d="M 0 0 L 330 0"/></g>
<g id="a1:93" transform="translate(56, 500.9995)"><text font-size="17" font-family="Noto Sans SC" font-weight="normal" fill="#24364b" text-anchor="start" dominant-baseline="alphabetic" x="0"><tspan x="0" y="20.001"><tspan x="0" text-anchor="start">PK id</tspan></tspan></text></g>
<g id="a1:70" transform="translate(56, 527.9995)"><text font-size="17" font-family="Noto Sans SC" font-weight="normal" fill="#24364b" text-anchor="start" dominant-baseline="alphabetic" x="0"><tspan x="0" y="20.001"><tspan x="0" text-anchor="start">starts_at / ends_at / status</tspan></tspan></text></g>
<g id="o1:18" transform="translate(510, 420)"><rect x="0" y="0" width="480" height="250" fill="#eaf2ff" stroke="#4678ab" stroke-width="2" rx="8" ry="8"/></g>
<g id="a1:87" transform="translate(526, 428.47)"><text font-size="20" font-family="Noto Sans SC" font-weight="bold" fill="#172b46" text-anchor="start" dominant-baseline="alphabetic" x="0"><tspan x="0" y="23.53"><tspan x="0" text-anchor="start">课次参与 SessionParticipant</tspan></tspan></text></g>
<g id="c1:24" transform="translate(510, 468)"><path fill="none" stroke="#4678ab" stroke-width="2" stroke-linecap="round" stroke-linejoin="round" d="M 0 0 L 480 0"/></g>
<g id="a1:68" transform="translate(526, 475.9995)"><text font-size="17" font-family="Noto Sans SC" font-weight="normal" fill="#24364b" text-anchor="start" dominant-baseline="alphabetic" x="0"><tspan x="0" y="20.001"><tspan x="0" text-anchor="start">PK id / FK student_id / session_id</tspan></tspan></text></g>
<g id="a1:78" transform="translate(526, 502.9995)"><text font-size="17" font-family="Noto Sans SC" font-weight="normal" fill="#24364b" text-anchor="start" dominant-baseline="alphabetic" x="0"><tspan x="0" y="20.001"><tspan x="0" text-anchor="start">FK trial_case_id（试听必填）</tspan></tspan></text></g>
<g id="a1:74" transform="translate(526, 529.9995)"><text font-size="17" font-family="Noto Sans SC" font-weight="normal" fill="#24364b" text-anchor="start" dominant-baseline="alphabetic" x="0"><tspan x="0" y="20.001"><tspan x="0" text-anchor="start">kind：trial / regular</tspan></tspan></text></g>
<g id="a1:94" transform="translate(526, 556.9995)"><text font-size="17" font-family="Noto Sans SC" font-weight="normal" fill="#24364b" text-anchor="start" dominant-baseline="alphabetic" x="0"><tspan x="0" y="20.001"><tspan x="0" text-anchor="start">booking_status：booked / cancelled</tspan></tspan></text></g>
<g id="a1:96" transform="translate(526, 583.9995)"><text font-size="17" font-family="Noto Sans SC" font-weight="normal" fill="#24364b" text-anchor="start" dominant-baseline="alphabetic" x="0"><tspan x="0" y="20.001"><tspan x="0" text-anchor="start">attendance：pending / present / absent</tspan></tspan></text></g>
<g id="a1:88" transform="translate(526, 610.9995)"><text font-size="17" font-family="Noto Sans SC" font-weight="normal" fill="#24364b" text-anchor="start" dominant-baseline="alphabetic" x="0"><tspan x="0" y="20.001"><tspan x="0" text-anchor="start">teacher_feedback</tspan></tspan></text></g>
<g id="a1:86" transform="translate(40, 735.9995)"><text font-size="17" font-family="Noto Sans SC" font-weight="normal" fill="#475569" text-anchor="start" dominant-baseline="alphabetic" x="0"><tspan x="0" y="20.001"><tspan x="0" text-anchor="start">报名时只建 TrialCase；安排时建 SessionParticipant；缺席重约复用原流程，保留旧参与记录。</tspan></tspan></text></g>
<g id="a1:71" transform="translate(40, 764.9995)"><text font-size="17" font-family="Noto Sans SC" font-weight="normal" fill="#475569" text-anchor="start" dominant-baseline="alphabetic" x="0"><tspan x="0" y="20.001"><tspan x="0" text-anchor="start">Admin 1 → 0..N Student；Admin 1 → 0..N FollowUp（图中省略账号实体，相关外键已标注）。</tspan></tspan></text></g>
<g id="a1:69" transform="translate(40, 793.9995)"><text font-size="17" font-family="Noto Sans SC" font-weight="normal" fill="#475569" text-anchor="start" dominant-baseline="alphabetic" x="0"><tspan x="0" y="20.001"><tspan x="0" text-anchor="start">流程 status 决定待办；scheduled 按课次时间区分等待上课／待老师登记。</tspan></tspan></text></g>
</svg>